<svg xmlns="http://www.w3.org/2000/svg" width="212.5" height="212.5"><g><rect x="21.25" y="21.25" width="42.5" height="42.5" fill="white" stroke="black" stroke-width="1"></rect><rect x="63.75" y="21.25" width="42.5" height="42.5" fill="white" stroke="black" stroke-width="1"></rect><rect x="106.25" y="21.25" width="42.5" height="42.5" fill="white" stroke="black" stroke-width="1"></rect><rect x="148.75" y="21.25" width="42.5" height="42.5" fill="white" stroke="black" stroke-width="1"></rect></g><g><rect x="21.25" y="63.75" width="42.5" height="42.5" fill="white" stroke="black" stroke-width="1"></rect><rect x="63.75" y="63.75" width="42.5" height="42.5" fill="white" stroke="black" stroke-width="1"></rect><rect x="106.25" y="63.75" width="42.5" height="42.5" fill="#440154" stroke="black" stroke-width="1"></rect><rect x="148.75" y="63.75" width="42.5" height="42.5" fill="#29788e" stroke="black" stroke-width="1"></rect></g><g><rect x="21.25" y="106.25" width="42.5" height="42.5" fill="white" stroke="black" stroke-width="1"></rect><rect x="63.75" y="106.25" width="42.5" height="42.5" fill="#440154" stroke="black" stroke-width="1"></rect><rect x="106.25" y="106.25" width="42.5" height="42.5" fill="white" stroke="black" stroke-width="1"></rect><rect x="148.75" y="106.25" width="42.5" height="42.5" fill="#29788e" stroke="black" stroke-width="1"></rect></g><g><rect x="21.25" y="148.75" width="42.5" height="42.5" fill="white" stroke="black" stroke-width="1"></rect><rect x="63.75" y="148.75" width="42.5" height="42.5" fill="#29788e" stroke="black" stroke-width="1"></rect><rect x="106.25" y="148.75" width="42.5" height="42.5" fill="#29788e" stroke="black" stroke-width="1"></rect><rect x="148.75" y="148.75" width="42.5" height="42.5" fill="white" stroke="black" stroke-width="1"></rect></g></svg>