<svg xmlns="http://www.w3.org/2000/svg" width="315" height="315"><g><rect x="17.5" y="17.5" width="35" height="35" fill="white" stroke="black" stroke-width="1"/><rect x="52.5" y="17.5" width="35" height="35" fill="white" stroke="black" stroke-width="1"/><rect x="87.5" y="17.5" width="35" height="35" fill="white" stroke="black" stroke-width="1"/><rect x="122.5" y="17.5" width="35" height="35" fill="white" stroke="black" stroke-width="1"/><rect x="157.5" y="17.5" width="35" height="35" fill="white" stroke="black" stroke-width="1"/><rect x="192.5" y="17.5" width="35" height="35" fill="white" stroke="black" stroke-width="1"/><rect x="227.5" y="17.5" width="35" height="35" fill="white" stroke="black" stroke-width="1"/><rect x="262.5" y="17.5" width="35" height="35" fill="white" stroke="black" stroke-width="1"/></g><g><rect x="17.5" y="52.5" width="35" height="35" fill="white" stroke="black" stroke-width="1"/><rect x="52.5" y="52.5" width="35" height="35" fill="#5eb365" stroke="black" stroke-width="1"/><rect x="87.5" y="52.5" width="35" height="35" fill="#385489" stroke="black" stroke-width="1"/><rect x="122.5" y="52.5" width="35" height="35" fill="#385489" stroke="black" stroke-width="1"/><rect x="157.5" y="52.5" width="35" height="35" fill="white" stroke="black" stroke-width="1"/><rect x="192.5" y="52.5" width="35" height="35" fill="white" stroke="black" stroke-width="1"/><rect x="227.5" y="52.5" width="35" height="35" fill="white" stroke="black" stroke-width="1"/><rect x="262.5" y="52.5" width="35" height="35" fill="white" stroke="black" stroke-width="1"/></g><g><rect x="17.5" y="87.5" width="35" height="35" fill="white" stroke="black" stroke-width="1"/><rect x="52.5" y="87.5" width="35" height="35" fill="white" stroke="black" stroke-width="1"/><rect x="87.5" y="87.5" width="35" height="35" fill="white" stroke="black" stroke-width="1"/><rect x="122.5" y="87.5" width="35" height="35" fill="#385489" stroke="black" stroke-width="1"/><rect x="157.5" y="87.5" width="35" height="35" fill="white" stroke="black" stroke-width="1"/><rect x="192.5" y="87.5" width="35" height="35" fill="white" stroke="black" stroke-width="1"/><rect x="227.5" y="87.5" width="35" height="35" fill="white" stroke="black" stroke-width="1"/><rect x="262.5" y="87.5" width="35" height="35" fill="white" stroke="black" stroke-width="1"/></g><g><rect x="17.5" y="122.5" width="35" height="35" fill="white" stroke="black" stroke-width="1"/><rect x="52.5" y="122.5" width="35" height="35" fill="#385489" stroke="black" stroke-width="1"/><rect x="87.5" y="122.5" width="35" height="35" fill="#385489" stroke="black" stroke-width="1"/><rect x="122.5" y="122.5" width="35" height="35" fill="#5eb365" stroke="black" stroke-width="1"/><rect x="157.5" y="122.5" width="35" height="35" fill="#440154" stroke="black" stroke-width="1"/><rect x="192.5" y="122.5" width="35" height="35" fill="white" stroke="black" stroke-width="1"/><rect x="227.5" y="122.5" width="35" height="35" fill="white" stroke="black" stroke-width="1"/><rect x="262.5" y="122.5" width="35" height="35" fill="white" stroke="black" stroke-width="1"/></g><g><rect x="17.5" y="157.5" width="35" height="35" fill="white" stroke="black" stroke-width="1"/><rect x="52.5" y="157.5" width="35" height="35" fill="#385489" stroke="black" stroke-width="1"/><rect x="87.5" y="157.5" width="35" height="35" fill="white" stroke="black" stroke-width="1"/><rect x="122.5" y="157.5" width="35" height="35" fill="white" stroke="black" stroke-width="1"/><rect x="157.5" y="157.5" width="35" height="35" fill="#5eb365" stroke="black" stroke-width="1"/><rect x="192.5" y="157.5" width="35" height="35" fill="#385489" stroke="black" stroke-width="1"/><rect x="227.5" y="157.5" width="35" height="35" fill="#385489" stroke="black" stroke-width="1"/><rect x="262.5" y="157.5" width="35" height="35" fill="white" stroke="black" stroke-width="1"/></g><g><rect x="17.5" y="192.5" width="35" height="35" fill="white" stroke="black" stroke-width="1"/><rect x="52.5" y="192.5" width="35" height="35" fill="#385489" stroke="black" stroke-width="1"/><rect x="87.5" y="192.5" width="35" height="35" fill="white" stroke="black" stroke-width="1"/><rect x="122.5" y="192.5" width="35" height="35" fill="white" stroke="black" stroke-width="1"/><rect x="157.5" y="192.5" width="35" height="35" fill="#385489" stroke="black" stroke-width="1"/><rect x="192.5" y="192.5" width="35" height="35" fill="white" stroke="black" stroke-width="1"/><rect x="227.5" y="192.5" width="35" height="35" fill="#385489" stroke="black" stroke-width="1"/><rect x="262.5" y="192.5" width="35" height="35" fill="white" stroke="black" stroke-width="1"/></g><g><rect x="17.5" y="227.5" width="35" height="35" fill="white" stroke="black" stroke-width="1"/><rect x="52.5" y="227.5" width="35" height="35" fill="#440154" stroke="black" stroke-width="1"/><rect x="87.5" y="227.5" width="35" height="35" fill="#385489" stroke="black" stroke-width="1"/><rect x="122.5" y="227.5" width="35" height="35" fill="#385489" stroke="black" stroke-width="1"/><rect x="157.5" y="227.5" width="35" height="35" fill="#385489" stroke="black" stroke-width="1"/><rect x="192.5" y="227.5" width="35" height="35" fill="white" stroke="black" stroke-width="1"/><rect x="227.5" y="227.5" width="35" height="35" fill="#5eb365" stroke="black" stroke-width="1"/><rect x="262.5" y="227.5" width="35" height="35" fill="white" stroke="black" stroke-width="1"/></g><g><rect x="17.5" y="262.5" width="35" height="35" fill="white" stroke="black" stroke-width="1"/><rect x="52.5" y="262.5" width="35" height="35" fill="white" stroke="black" stroke-width="1"/><rect x="87.5" y="262.5" width="35" height="35" fill="white" stroke="black" stroke-width="1"/><rect x="122.5" y="262.5" width="35" height="35" fill="white" stroke="black" stroke-width="1"/><rect x="157.5" y="262.5" width="35" height="35" fill="white" stroke="black" stroke-width="1"/><rect x="192.5" y="262.5" width="35" height="35" fill="white" stroke="black" stroke-width="1"/><rect x="227.5" y="262.5" width="35" height="35" fill="white" stroke="black" stroke-width="1"/><rect x="262.5" y="262.5" width="35" height="35" fill="white" stroke="black" stroke-width="1"/></g></svg>