<svg xmlns="http://www.w3.org/2000/svg" width="467.5" height="467.5"><g><rect x="13.75" y="13.75" width="27.5" height="27.5" fill="white" stroke="black" stroke-width="1"/><rect x="41.25" y="13.75" width="27.5" height="27.5" fill="white" stroke="black" stroke-width="1"/><rect x="68.75" y="13.75" width="27.5" height="27.5" fill="white" stroke="black" stroke-width="1"/><rect x="96.25" y="13.75" width="27.5" height="27.5" fill="white" stroke="black" stroke-width="1"/><rect x="123.75" y="13.75" width="27.5" height="27.5" fill="white" stroke="black" stroke-width="1"/><rect x="151.25" y="13.75" width="27.5" height="27.5" fill="white" stroke="black" stroke-width="1"/><rect x="178.75" y="13.75" width="27.5" height="27.5" fill="white" stroke="black" stroke-width="1"/><rect x="206.25" y="13.75" width="27.5" height="27.5" fill="white" stroke="black" stroke-width="1"/><rect x="233.75" y="13.75" width="27.5" height="27.5" fill="white" stroke="black" stroke-width="1"/><rect x="261.25" y="13.75" width="27.5" height="27.5" fill="white" stroke="black" stroke-width="1"/><rect x="288.75" y="13.75" width="27.5" height="27.5" fill="white" stroke="black" stroke-width="1"/><rect x="316.25" y="13.75" width="27.5" height="27.5" fill="#404387" stroke="black" stroke-width="1"/><rect x="343.75" y="13.75" width="27.5" height="27.5" fill="white" stroke="black" stroke-width="1"/><rect x="371.25" y="13.75" width="27.5" height="27.5" fill="#404387" stroke="black" stroke-width="1"/><rect x="398.75" y="13.75" width="27.5" height="27.5" fill="#404387" stroke="black" stroke-width="1"/><rect x="426.25" y="13.75" width="27.5" height="27.5" fill="white" stroke="black" stroke-width="1"/></g><g><rect x="13.75" y="41.25" width="27.5" height="27.5" fill="white" stroke="black" stroke-width="1"/><rect x="41.25" y="41.25" width="27.5" height="27.5" fill="white" stroke="black" stroke-width="1"/><rect x="68.75" y="41.25" width="27.5" height="27.5" fill="white" stroke="black" stroke-width="1"/><rect x="96.25" y="41.25" width="27.5" height="27.5" fill="white" stroke="black" stroke-width="1"/><rect x="123.75" y="41.25" width="27.5" height="27.5" fill="white" stroke="black" stroke-width="1"/><rect x="151.25" y="41.25" width="27.5" height="27.5" fill="white" stroke="black" stroke-width="1"/><rect x="178.75" y="41.25" width="27.5" height="27.5" fill="white" stroke="black" stroke-width="1"/><rect x="206.25" y="41.25" width="27.5" height="27.5" fill="white" stroke="black" stroke-width="1"/><rect x="233.75" y="41.25" width="27.5" height="27.5" fill="white" stroke="black" stroke-width="1"/><rect x="261.25" y="41.25" width="27.5" height="27.5" fill="white" stroke="black" stroke-width="1"/><rect x="288.75" y="41.25" width="27.5" height="27.5" fill="#404387" stroke="black" stroke-width="1"/><rect x="316.25" y="41.25" width="27.5" height="27.5" fill="white" stroke="black" stroke-width="1"/><rect x="343.75" y="41.25" width="27.5" height="27.5" fill="#404387" stroke="black" stroke-width="1"/><rect x="371.25" y="41.25" width="27.5" height="27.5" fill="white" stroke="black" stroke-width="1"/><rect x="398.75" y="41.25" width="27.5" height="27.5" fill="white" stroke="black" stroke-width="1"/><rect x="426.25" y="41.25" width="27.5" height="27.5" fill="#404387" stroke="black" stroke-width="1"/></g><g><rect x="13.75" y="68.75" width="27.5" height="27.5" fill="white" stroke="black" stroke-width="1"/><rect x="41.25" y="68.75" width="27.5" height="27.5" fill="white" stroke="black" stroke-width="1"/><rect x="68.75" y="68.75" width="27.5" height="27.5" fill="white" stroke="black" stroke-width="1"/><rect x="96.25" y="68.75" width="27.5" height="27.5" fill="white" stroke="black" stroke-width="1"/><rect x="123.75" y="68.75" width="27.5" height="27.5" fill="white" stroke="black" stroke-width="1"/><rect x="151.25" y="68.75" width="27.5" height="27.5" fill="white" stroke="black" stroke-width="1"/><rect x="178.75" y="68.75" width="27.5" height="27.5" fill="white" stroke="black" stroke-width="1"/><rect x="206.25" y="68.75" width="27.5" height="27.5" fill="white" stroke="black" stroke-width="1"/><rect x="233.75" y="68.75" width="27.5" height="27.5" fill="white" stroke="black" stroke-width="1"/><rect x="261.25" y="68.75" width="27.5" height="27.5" fill="#404387" stroke="black" stroke-width="1"/><rect x="288.75" y="68.75" width="27.5" height="27.5" fill="white" stroke="black" stroke-width="1"/><rect x="316.25" y="68.75" width="27.5" height="27.5" fill="white" stroke="black" stroke-width="1"/><rect x="343.75" y="68.75" width="27.5" height="27.5" fill="#404387" stroke="black" stroke-width="1"/><rect x="371.25" y="68.75" width="27.5" height="27.5" fill="white" stroke="black" stroke-width="1"/><rect x="398.75" y="68.75" width="27.5" height="27.5" fill="white" stroke="black" stroke-width="1"/><rect x="426.25" y="68.75" width="27.5" height="27.5" fill="#404387" stroke="black" stroke-width="1"/></g><g><rect x="13.75" y="96.25" width="27.5" height="27.5" fill="white" stroke="black" stroke-width="1"/><rect x="41.25" y="96.25" width="27.5" height="27.5" fill="white" stroke="black" stroke-width="1"/><rect x="68.75" y="96.25" width="27.5" height="27.5" fill="white" stroke="black" stroke-width="1"/><rect x="96.25" y="96.25" width="27.5" height="27.5" fill="white" stroke="black" stroke-width="1"/><rect x="123.75" y="96.25" width="27.5" height="27.5" fill="white" stroke="black" stroke-width="1"/><rect x="151.25" y="96.25" width="27.5" height="27.5" fill="white" stroke="black" stroke-width="1"/><rect x="178.75" y="96.25" width="27.5" height="27.5" fill="white" stroke="black" stroke-width="1"/><rect x="206.25" y="96.25" width="27.5" height="27.5" fill="white" stroke="black" stroke-width="1"/><rect x="233.75" y="96.25" width="27.5" height="27.5" fill="#404387" stroke="black" stroke-width="1"/><rect x="261.25" y="96.25" width="27.5" height="27.5" fill="white" stroke="black" stroke-width="1"/><rect x="288.75" y="96.25" width="27.5" height="27.5" fill="white" stroke="black" stroke-width="1"/><rect x="316.25" y="96.25" width="27.5" height="27.5" fill="white" stroke="black" stroke-width="1"/><rect x="343.75" y="96.25" width="27.5" height="27.5" fill="white" stroke="black" stroke-width="1"/><rect x="371.25" y="96.25" width="27.5" height="27.5" fill="#404387" stroke="black" stroke-width="1"/><rect x="398.75" y="96.25" width="27.5" height="27.5" fill="#404387" stroke="black" stroke-width="1"/><rect x="426.25" y="96.25" width="27.5" height="27.5" fill="white" stroke="black" stroke-width="1"/></g><g><rect x="13.75" y="123.75" width="27.5" height="27.5" fill="white" stroke="black" stroke-width="1"/><rect x="41.25" y="123.75" width="27.5" height="27.5" fill="white" stroke="black" stroke-width="1"/><rect x="68.75" y="123.75" width="27.5" height="27.5" fill="white" stroke="black" stroke-width="1"/><rect x="96.25" y="123.75" width="27.5" height="27.5" fill="white" stroke="black" stroke-width="1"/><rect x="123.75" y="123.75" width="27.5" height="27.5" fill="white" stroke="black" stroke-width="1"/><rect x="151.25" y="123.75" width="27.5" height="27.5" fill="white" stroke="black" stroke-width="1"/><rect x="178.75" y="123.75" width="27.5" height="27.5" fill="white" stroke="black" stroke-width="1"/><rect x="206.25" y="123.75" width="27.5" height="27.5" fill="white" stroke="black" stroke-width="1"/><rect x="233.75" y="123.75" width="27.5" height="27.5" fill="white" stroke="black" stroke-width="1"/><rect x="261.25" y="123.75" width="27.5" height="27.5" fill="#404387" stroke="black" stroke-width="1"/><rect x="288.75" y="123.75" width="27.5" height="27.5" fill="#404387" stroke="black" stroke-width="1"/><rect x="316.25" y="123.75" width="27.5" height="27.5" fill="white" stroke="black" stroke-width="1"/><rect x="343.75" y="123.75" width="27.5" height="27.5" fill="white" stroke="black" stroke-width="1"/><rect x="371.25" y="123.75" width="27.5" height="27.5" fill="white" stroke="black" stroke-width="1"/><rect x="398.75" y="123.75" width="27.5" height="27.5" fill="white" stroke="black" stroke-width="1"/><rect x="426.25" y="123.75" width="27.5" height="27.5" fill="#404387" stroke="black" stroke-width="1"/></g><g><rect x="13.75" y="151.25" width="27.5" height="27.5" fill="white" stroke="black" stroke-width="1"/><rect x="41.25" y="151.25" width="27.5" height="27.5" fill="white" stroke="black" stroke-width="1"/><rect x="68.75" y="151.25" width="27.5" height="27.5" fill="white" stroke="black" stroke-width="1"/><rect x="96.25" y="151.25" width="27.5" height="27.5" fill="white" stroke="black" stroke-width="1"/><rect x="123.75" y="151.25" width="27.5" height="27.5" fill="white" stroke="black" stroke-width="1"/><rect x="151.25" y="151.25" width="27.5" height="27.5" fill="white" stroke="black" stroke-width="1"/><rect x="178.75" y="151.25" width="27.5" height="27.5" fill="white" stroke="black" stroke-width="1"/><rect x="206.25" y="151.25" width="27.5" height="27.5" fill="white" stroke="black" stroke-width="1"/><rect x="233.75" y="151.25" width="27.5" height="27.5" fill="#404387" stroke="black" stroke-width="1"/><rect x="261.25" y="151.25" width="27.5" height="27.5" fill="white" stroke="black" stroke-width="1"/><rect x="288.75" y="151.25" width="27.5" height="27.5" fill="white" stroke="black" stroke-width="1"/><rect x="316.25" y="151.25" width="27.5" height="27.5" fill="#404387" stroke="black" stroke-width="1"/><rect x="343.75" y="151.25" width="27.5" height="27.5" fill="white" stroke="black" stroke-width="1"/><rect x="371.25" y="151.25" width="27.5" height="27.5" fill="white" stroke="black" stroke-width="1"/><rect x="398.75" y="151.25" width="27.5" height="27.5" fill="#404387" stroke="black" stroke-width="1"/><rect x="426.25" y="151.25" width="27.5" height="27.5" fill="white" stroke="black" stroke-width="1"/></g><g><rect x="13.75" y="178.75" width="27.5" height="27.5" fill="white" stroke="black" stroke-width="1"/><rect x="41.25" y="178.75" width="27.5" height="27.5" fill="white" stroke="black" stroke-width="1"/><rect x="68.75" y="178.75" width="27.5" height="27.5" fill="white" stroke="black" stroke-width="1"/><rect x="96.25" y="178.75" width="27.5" height="27.5" fill="white" stroke="black" stroke-width="1"/><rect x="123.75" y="178.75" width="27.5" height="27.5" fill="white" stroke="black" stroke-width="1"/><rect x="151.25" y="178.75" width="27.5" height="27.5" fill="white" stroke="black" stroke-width="1"/><rect x="178.75" y="178.75" width="27.5" height="27.5" fill="white" stroke="black" stroke-width="1"/><rect x="206.25" y="178.75" width="27.5" height="27.5" fill="white" stroke="black" stroke-width="1"/><rect x="233.75" y="178.75" width="27.5" height="27.5" fill="#404387" stroke="black" stroke-width="1"/><rect x="261.25" y="178.75" width="27.5" height="27.5" fill="white" stroke="black" stroke-width="1"/><rect x="288.75" y="178.75" width="27.5" height="27.5" fill="white" stroke="black" stroke-width="1"/><rect x="316.25" y="178.75" width="27.5" height="27.5" fill="#404387" stroke="black" stroke-width="1"/><rect x="343.75" y="178.75" width="27.5" height="27.5" fill="white" stroke="black" stroke-width="1"/><rect x="371.25" y="178.75" width="27.5" height="27.5" fill="#404387" stroke="black" stroke-width="1"/><rect x="398.75" y="178.75" width="27.5" height="27.5" fill="white" stroke="black" stroke-width="1"/><rect x="426.25" y="178.75" width="27.5" height="27.5" fill="white" stroke="black" stroke-width="1"/></g><g><rect x="13.75" y="206.25" width="27.5" height="27.5" fill="white" stroke="black" stroke-width="1"/><rect x="41.25" y="206.25" width="27.5" height="27.5" fill="white" stroke="black" stroke-width="1"/><rect x="68.75" y="206.25" width="27.5" height="27.5" fill="white" stroke="black" stroke-width="1"/><rect x="96.25" y="206.25" width="27.5" height="27.5" fill="white" stroke="black" stroke-width="1"/><rect x="123.75" y="206.25" width="27.5" height="27.5" fill="white" stroke="black" stroke-width="1"/><rect x="151.25" y="206.25" width="27.5" height="27.5" fill="white" stroke="black" stroke-width="1"/><rect x="178.75" y="206.25" width="27.5" height="27.5" fill="white" stroke="black" stroke-width="1"/><rect x="206.25" y="206.25" width="27.5" height="27.5" fill="white" stroke="black" stroke-width="1"/><rect x="233.75" y="206.25" width="27.5" height="27.5" fill="white" stroke="black" stroke-width="1"/><rect x="261.25" y="206.25" width="27.5" height="27.5" fill="#404387" stroke="black" stroke-width="1"/><rect x="288.75" y="206.25" width="27.5" height="27.5" fill="#404387" stroke="black" stroke-width="1"/><rect x="316.25" y="206.25" width="27.5" height="27.5" fill="white" stroke="black" stroke-width="1"/><rect x="343.75" y="206.25" width="27.5" height="27.5" fill="#404387" stroke="black" stroke-width="1"/><rect x="371.25" y="206.25" width="27.5" height="27.5" fill="white" stroke="black" stroke-width="1"/><rect x="398.75" y="206.25" width="27.5" height="27.5" fill="white" stroke="black" stroke-width="1"/><rect x="426.25" y="206.25" width="27.5" height="27.5" fill="white" stroke="black" stroke-width="1"/></g><g><rect x="13.75" y="233.75" width="27.5" height="27.5" fill="white" stroke="black" stroke-width="1"/><rect x="41.25" y="233.75" width="27.5" height="27.5" fill="white" stroke="black" stroke-width="1"/><rect x="68.75" y="233.75" width="27.5" height="27.5" fill="white" stroke="black" stroke-width="1"/><rect x="96.25" y="233.75" width="27.5" height="27.5" fill="#404387" stroke="black" stroke-width="1"/><rect x="123.75" y="233.75" width="27.5" height="27.5" fill="white" stroke="black" stroke-width="1"/><rect x="151.25" y="233.75" width="27.5" height="27.5" fill="#404387" stroke="black" stroke-width="1"/><rect x="178.75" y="233.75" width="27.5" height="27.5" fill="#404387" stroke="black" stroke-width="1"/><rect x="206.25" y="233.75" width="27.5" height="27.5" fill="white" stroke="black" stroke-width="1"/><rect x="233.75" y="233.75" width="27.5" height="27.5" fill="white" stroke="black" stroke-width="1"/><rect x="261.25" y="233.75" width="27.5" height="27.5" fill="white" stroke="black" stroke-width="1"/><rect x="288.75" y="233.75" width="27.5" height="27.5" fill="white" stroke="black" stroke-width="1"/><rect x="316.25" y="233.75" width="27.5" height="27.5" fill="white" stroke="black" stroke-width="1"/><rect x="343.75" y="233.75" width="27.5" height="27.5" fill="white" stroke="black" stroke-width="1"/><rect x="371.25" y="233.75" width="27.5" height="27.5" fill="white" stroke="black" stroke-width="1"/><rect x="398.75" y="233.75" width="27.5" height="27.5" fill="white" stroke="black" stroke-width="1"/><rect x="426.25" y="233.75" width="27.5" height="27.5" fill="white" stroke="black" stroke-width="1"/></g><g><rect x="13.75" y="261.25" width="27.5" height="27.5" fill="white" stroke="black" stroke-width="1"/><rect x="41.25" y="261.25" width="27.5" height="27.5" fill="white" stroke="black" stroke-width="1"/><rect x="68.75" y="261.25" width="27.5" height="27.5" fill="#404387" stroke="black" stroke-width="1"/><rect x="96.25" y="261.25" width="27.5" height="27.5" fill="white" stroke="black" stroke-width="1"/><rect x="123.75" y="261.25" width="27.5" height="27.5" fill="#404387" stroke="black" stroke-width="1"/><rect x="151.25" y="261.25" width="27.5" height="27.5" fill="white" stroke="black" stroke-width="1"/><rect x="178.75" y="261.25" width="27.5" height="27.5" fill="white" stroke="black" stroke-width="1"/><rect x="206.25" y="261.25" width="27.5" height="27.5" fill="#404387" stroke="black" stroke-width="1"/><rect x="233.75" y="261.25" width="27.5" height="27.5" fill="white" stroke="black" stroke-width="1"/><rect x="261.25" y="261.25" width="27.5" height="27.5" fill="white" stroke="black" stroke-width="1"/><rect x="288.75" y="261.25" width="27.5" height="27.5" fill="white" stroke="black" stroke-width="1"/><rect x="316.25" y="261.25" width="27.5" height="27.5" fill="white" stroke="black" stroke-width="1"/><rect x="343.75" y="261.25" width="27.5" height="27.5" fill="white" stroke="black" stroke-width="1"/><rect x="371.25" y="261.25" width="27.5" height="27.5" fill="white" stroke="black" stroke-width="1"/><rect x="398.75" y="261.25" width="27.5" height="27.5" fill="white" stroke="black" stroke-width="1"/><rect x="426.25" y="261.25" width="27.5" height="27.5" fill="white" stroke="black" stroke-width="1"/></g><g><rect x="13.75" y="288.75" width="27.5" height="27.5" fill="white" stroke="black" stroke-width="1"/><rect x="41.25" y="288.75" width="27.5" height="27.5" fill="#404387" stroke="black" stroke-width="1"/><rect x="68.75" y="288.75" width="27.5" height="27.5" fill="white" stroke="black" stroke-width="1"/><rect x="96.25" y="288.75" width="27.5" height="27.5" fill="white" stroke="black" stroke-width="1"/><rect x="123.75" y="288.75" width="27.5" height="27.5" fill="#404387" stroke="black" stroke-width="1"/><rect x="151.25" y="288.75" width="27.5" height="27.5" fill="white" stroke="black" stroke-width="1"/><rect x="178.75" y="288.75" width="27.5" height="27.5" fill="white" stroke="black" stroke-width="1"/><rect x="206.25" y="288.75" width="27.5" height="27.5" fill="#404387" stroke="black" stroke-width="1"/><rect x="233.75" y="288.75" width="27.5" height="27.5" fill="white" stroke="black" stroke-width="1"/><rect x="261.25" y="288.75" width="27.5" height="27.5" fill="white" stroke="black" stroke-width="1"/><rect x="288.75" y="288.75" width="27.5" height="27.5" fill="white" stroke="black" stroke-width="1"/><rect x="316.25" y="288.75" width="27.5" height="27.5" fill="white" stroke="black" stroke-width="1"/><rect x="343.75" y="288.75" width="27.5" height="27.5" fill="white" stroke="black" stroke-width="1"/><rect x="371.25" y="288.75" width="27.5" height="27.5" fill="white" stroke="black" stroke-width="1"/><rect x="398.75" y="288.75" width="27.5" height="27.5" fill="white" stroke="black" stroke-width="1"/><rect x="426.25" y="288.75" width="27.5" height="27.5" fill="white" stroke="black" stroke-width="1"/></g><g><rect x="13.75" y="316.25" width="27.5" height="27.5" fill="#404387" stroke="black" stroke-width="1"/><rect x="41.25" y="316.25" width="27.5" height="27.5" fill="white" stroke="black" stroke-width="1"/><rect x="68.75" y="316.25" width="27.5" height="27.5" fill="white" stroke="black" stroke-width="1"/><rect x="96.25" y="316.25" width="27.5" height="27.5" fill="white" stroke="black" stroke-width="1"/><rect x="123.75" y="316.25" width="27.5" height="27.5" fill="white" stroke="black" stroke-width="1"/><rect x="151.25" y="316.25" width="27.5" height="27.5" fill="#404387" stroke="black" stroke-width="1"/><rect x="178.75" y="316.25" width="27.5" height="27.5" fill="#404387" stroke="black" stroke-width="1"/><rect x="206.25" y="316.25" width="27.5" height="27.5" fill="white" stroke="black" stroke-width="1"/><rect x="233.75" y="316.25" width="27.5" height="27.5" fill="white" stroke="black" stroke-width="1"/><rect x="261.25" y="316.25" width="27.5" height="27.5" fill="white" stroke="black" stroke-width="1"/><rect x="288.75" y="316.25" width="27.5" height="27.5" fill="white" stroke="black" stroke-width="1"/><rect x="316.25" y="316.25" width="27.5" height="27.5" fill="white" stroke="black" stroke-width="1"/><rect x="343.75" y="316.25" width="27.5" height="27.5" fill="white" stroke="black" stroke-width="1"/><rect x="371.25" y="316.25" width="27.5" height="27.5" fill="white" stroke="black" stroke-width="1"/><rect x="398.75" y="316.25" width="27.5" height="27.5" fill="white" stroke="black" stroke-width="1"/><rect x="426.25" y="316.25" width="27.5" height="27.5" fill="white" stroke="black" stroke-width="1"/></g><g><rect x="13.75" y="343.75" width="27.5" height="27.5" fill="white" stroke="black" stroke-width="1"/><rect x="41.25" y="343.75" width="27.5" height="27.5" fill="#404387" stroke="black" stroke-width="1"/><rect x="68.75" y="343.75" width="27.5" height="27.5" fill="#404387" stroke="black" stroke-width="1"/><rect x="96.25" y="343.75" width="27.5" height="27.5" fill="white" stroke="black" stroke-width="1"/><rect x="123.75" y="343.75" width="27.5" height="27.5" fill="white" stroke="black" stroke-width="1"/><rect x="151.25" y="343.75" width="27.5" height="27.5" fill="white" stroke="black" stroke-width="1"/><rect x="178.75" y="343.75" width="27.5" height="27.5" fill="white" stroke="black" stroke-width="1"/><rect x="206.25" y="343.75" width="27.5" height="27.5" fill="#404387" stroke="black" stroke-width="1"/><rect x="233.75" y="343.75" width="27.5" height="27.5" fill="white" stroke="black" stroke-width="1"/><rect x="261.25" y="343.75" width="27.5" height="27.5" fill="white" stroke="black" stroke-width="1"/><rect x="288.75" y="343.75" width="27.5" height="27.5" fill="white" stroke="black" stroke-width="1"/><rect x="316.25" y="343.75" width="27.5" height="27.5" fill="white" stroke="black" stroke-width="1"/><rect x="343.75" y="343.75" width="27.5" height="27.5" fill="white" stroke="black" stroke-width="1"/><rect x="371.25" y="343.75" width="27.5" height="27.5" fill="white" stroke="black" stroke-width="1"/><rect x="398.75" y="343.75" width="27.5" height="27.5" fill="white" stroke="black" stroke-width="1"/><rect x="426.25" y="343.75" width="27.5" height="27.5" fill="white" stroke="black" stroke-width="1"/></g><g><rect x="13.75" y="371.25" width="27.5" height="27.5" fill="#404387" stroke="black" stroke-width="1"/><rect x="41.25" y="371.25" width="27.5" height="27.5" fill="white" stroke="black" stroke-width="1"/><rect x="68.75" y="371.25" width="27.5" height="27.5" fill="white" stroke="black" stroke-width="1"/><rect x="96.25" y="371.25" width="27.5" height="27.5" fill="#404387" stroke="black" stroke-width="1"/><rect x="123.75" y="371.25" width="27.5" height="27.5" fill="white" stroke="black" stroke-width="1"/><rect x="151.25" y="371.25" width="27.5" height="27.5" fill="white" stroke="black" stroke-width="1"/><rect x="178.75" y="371.25" width="27.5" height="27.5" fill="#404387" stroke="black" stroke-width="1"/><rect x="206.25" y="371.25" width="27.5" height="27.5" fill="white" stroke="black" stroke-width="1"/><rect x="233.75" y="371.25" width="27.5" height="27.5" fill="white" stroke="black" stroke-width="1"/><rect x="261.25" y="371.25" width="27.5" height="27.5" fill="white" stroke="black" stroke-width="1"/><rect x="288.75" y="371.25" width="27.5" height="27.5" fill="white" stroke="black" stroke-width="1"/><rect x="316.25" y="371.25" width="27.5" height="27.5" fill="white" stroke="black" stroke-width="1"/><rect x="343.75" y="371.25" width="27.5" height="27.5" fill="white" stroke="black" stroke-width="1"/><rect x="371.25" y="371.25" width="27.5" height="27.5" fill="white" stroke="black" stroke-width="1"/><rect x="398.75" y="371.25" width="27.5" height="27.5" fill="white" stroke="black" stroke-width="1"/><rect x="426.25" y="371.25" width="27.5" height="27.5" fill="white" stroke="black" stroke-width="1"/></g><g><rect x="13.75" y="398.75" width="27.5" height="27.5" fill="#404387" stroke="black" stroke-width="1"/><rect x="41.25" y="398.75" width="27.5" height="27.5" fill="white" stroke="black" stroke-width="1"/><rect x="68.75" y="398.75" width="27.5" height="27.5" fill="white" stroke="black" stroke-width="1"/><rect x="96.25" y="398.75" width="27.5" height="27.5" fill="#404387" stroke="black" stroke-width="1"/><rect x="123.75" y="398.75" width="27.5" height="27.5" fill="white" stroke="black" stroke-width="1"/><rect x="151.25" y="398.75" width="27.5" height="27.5" fill="#404387" stroke="black" stroke-width="1"/><rect x="178.75" y="398.75" width="27.5" height="27.5" fill="white" stroke="black" stroke-width="1"/><rect x="206.25" y="398.75" width="27.5" height="27.5" fill="white" stroke="black" stroke-width="1"/><rect x="233.75" y="398.75" width="27.5" height="27.5" fill="white" stroke="black" stroke-width="1"/><rect x="261.25" y="398.75" width="27.5" height="27.5" fill="white" stroke="black" stroke-width="1"/><rect x="288.75" y="398.75" width="27.5" height="27.5" fill="white" stroke="black" stroke-width="1"/><rect x="316.25" y="398.75" width="27.5" height="27.5" fill="white" stroke="black" stroke-width="1"/><rect x="343.75" y="398.75" width="27.5" height="27.5" fill="white" stroke="black" stroke-width="1"/><rect x="371.25" y="398.75" width="27.5" height="27.5" fill="white" stroke="black" stroke-width="1"/><rect x="398.75" y="398.75" width="27.5" height="27.5" fill="white" stroke="black" stroke-width="1"/><rect x="426.25" y="398.75" width="27.5" height="27.5" fill="white" stroke="black" stroke-width="1"/></g><g><rect x="13.75" y="426.25" width="27.5" height="27.5" fill="white" stroke="black" stroke-width="1"/><rect x="41.25" y="426.25" width="27.5" height="27.5" fill="#404387" stroke="black" stroke-width="1"/><rect x="68.75" y="426.25" width="27.5" height="27.5" fill="#404387" stroke="black" stroke-width="1"/><rect x="96.25" y="426.25" width="27.5" height="27.5" fill="white" stroke="black" stroke-width="1"/><rect x="123.75" y="426.25" width="27.5" height="27.5" fill="#404387" stroke="black" stroke-width="1"/><rect x="151.25" y="426.25" width="27.5" height="27.5" fill="white" stroke="black" stroke-width="1"/><rect x="178.75" y="426.25" width="27.5" height="27.5" fill="white" stroke="black" stroke-width="1"/><rect x="206.25" y="426.25" width="27.5" height="27.5" fill="white" stroke="black" stroke-width="1"/><rect x="233.75" y="426.25" width="27.5" height="27.5" fill="white" stroke="black" stroke-width="1"/><rect x="261.25" y="426.25" width="27.5" height="27.5" fill="white" stroke="black" stroke-width="1"/><rect x="288.75" y="426.25" width="27.5" height="27.5" fill="white" stroke="black" stroke-width="1"/><rect x="316.25" y="426.25" width="27.5" height="27.5" fill="white" stroke="black" stroke-width="1"/><rect x="343.75" y="426.25" width="27.5" height="27.5" fill="white" stroke="black" stroke-width="1"/><rect x="371.25" y="426.25" width="27.5" height="27.5" fill="white" stroke="black" stroke-width="1"/><rect x="398.75" y="426.25" width="27.5" height="27.5" fill="white" stroke="black" stroke-width="1"/><rect x="426.25" y="426.25" width="27.5" height="27.5" fill="white" stroke="black" stroke-width="1"/></g></svg>